<svg width="718" height="718" viewBox="0 0 718 718" fill="none" xmlns="http://www.w3.org/2000/svg">
<path d="M646.056 572.232H598.496V572.591H646.056V572.232Z" fill="#EBEBEB"/>
<path d="M475.632 576.138H463.153V576.497H475.632V576.138Z" fill="#EBEBEB"/>
<path d="M597.06 558.906H569.503V559.265H597.06V558.906Z" fill="#EBEBEB"/>
<path d="M137.353 561.318H75.3326V561.677H137.353V561.318Z" fill="#EBEBEB"/>
<path d="M159.238 561.318H150.148V561.677H159.238V561.318Z" fill="#EBEBEB"/>
<path d="M323.315 567.378H188.791V567.737H323.315V567.378Z" fill="#EBEBEB"/>
<path d="M340.332 485.081H63.0548C60.8826 485.077 58.8007 484.211 57.2661 482.674C55.7315 481.137 54.8696 479.053 54.8696 476.881V87.1078C54.8885 84.9481 55.7587 82.883 57.2913 81.3612C58.8239 79.8394 60.895 78.9837 63.0548 78.98H340.332C342.507 78.98 344.592 79.8439 346.13 81.3816C347.668 82.9193 348.532 85.0049 348.532 87.1796V476.881C348.532 479.056 347.668 481.142 346.13 482.679C344.592 484.217 342.507 485.081 340.332 485.081ZM63.0548 79.2672C60.9778 79.271 58.9872 80.0987 57.5199 81.5687C56.0527 83.0387 55.2286 85.0308 55.2286 87.1078V476.881C55.2286 478.958 56.0527 480.95 57.5199 482.42C58.9872 483.89 60.9778 484.718 63.0548 484.722H340.332C342.41 484.718 344.402 483.891 345.872 482.421C347.341 480.952 348.169 478.96 348.173 476.881V87.1078C348.169 85.0295 347.341 83.0374 345.872 81.5679C344.402 80.0983 342.41 79.271 340.332 79.2672H63.0548Z" fill="#EBEBEB"/>
<path d="M650.953 485.081H373.662C371.488 485.077 369.405 484.212 367.868 482.675C366.331 481.138 365.466 479.055 365.462 476.881V87.1078C365.485 84.9468 366.358 82.8817 367.893 81.3603C369.428 79.8389 371.5 78.9837 373.662 78.98H650.953C653.11 78.9875 655.178 79.8448 656.707 81.3663C658.237 82.8877 659.105 84.9505 659.124 87.1078V476.881C659.124 479.051 658.264 481.132 656.733 482.669C655.201 484.206 653.123 485.073 650.953 485.081ZM373.662 79.2672C371.583 79.271 369.591 80.0983 368.122 81.5679C366.652 83.0374 365.825 85.0295 365.821 87.1078V476.881C365.825 478.96 366.652 480.952 368.122 482.421C369.591 483.891 371.583 484.718 373.662 484.722H650.953C653.031 484.718 655.023 483.891 656.493 482.421C657.963 480.952 658.79 478.96 658.794 476.881V87.1078C658.79 85.0295 657.963 83.0374 656.493 81.5679C655.023 80.0983 653.031 79.271 650.953 79.2672H373.662Z" fill="#EBEBEB"/>
<path d="M718 549.126H0V549.485H718V549.126Z" fill="#EBEBEB"/>
<path d="M435.582 269.092H390.161C388.274 269.092 386.744 270.622 386.744 272.51V304.116C386.744 306.004 388.274 307.534 390.161 307.534H435.582C437.469 307.534 439 306.004 439 304.116V272.51C439 270.622 437.469 269.092 435.582 269.092Z" fill="#E0E0E0"/>
<path d="M414.085 272.409H390.578V285.448H414.085V272.409Z" fill="#EBEBEB"/>
<path d="M395.029 289.397H390.578V291.853H395.029V289.397Z" fill="#EBEBEB"/>
<path d="M395.029 293.518H390.578V295.974H395.029V293.518Z" fill="#EBEBEB"/>
<path d="M395.029 297.64H390.578V300.095H395.029V297.64Z" fill="#EBEBEB"/>
<path d="M395.029 301.761H390.578V304.217H395.029V301.761Z" fill="#EBEBEB"/>
<path d="M401.391 289.397H396.939V291.853H401.391V289.397Z" fill="#EBEBEB"/>
<path d="M401.391 293.518H396.939V295.974H401.391V293.518Z" fill="#EBEBEB"/>
<path d="M401.391 297.64H396.939V300.095H401.391V297.64Z" fill="#EBEBEB"/>
<path d="M401.391 301.761H396.939V304.217H401.391V301.761Z" fill="#EBEBEB"/>
<path d="M407.738 289.397H403.286V291.853H407.738V289.397Z" fill="#EBEBEB"/>
<path d="M407.738 293.518H403.286V295.974H407.738V293.518Z" fill="#EBEBEB"/>
<path d="M407.738 297.64H403.286V300.095H407.738V297.64Z" fill="#EBEBEB"/>
<path d="M407.738 301.761H403.286V304.217H407.738V301.761Z" fill="#EBEBEB"/>
<path d="M414.085 289.397H409.633V291.853H414.085V289.397Z" fill="#EBEBEB"/>
<path d="M414.085 293.518H409.633V295.974H414.085V293.518Z" fill="#EBEBEB"/>
<path d="M414.085 297.64H409.633V300.095H414.085V297.64Z" fill="#EBEBEB"/>
<path d="M414.085 301.761H409.633V304.217H414.085V301.761Z" fill="#EBEBEB"/>
<path d="M435.323 269.092H422.514V304.217H435.323V269.092Z" fill="#F0F0F0"/>
<path d="M435.323 278.929H422.514V293.533H435.323V278.929Z" fill="#E6E6E6"/>
<path d="M422.514 293.518L424.955 285.448H433.543L435.323 293.518H422.514Z" fill="#E0E0E0"/>
<path d="M637.426 115.655V549.988H545.091L545.264 549.27H623.684V127.933H460.683V549.27H511.13L545.091 549.988H448.405V115.655H637.426Z" fill="#EBEBEB"/>
<path d="M623.684 127.933V549.27H545.264L545.091 549.988L511.13 549.27H460.683V127.933H623.684Z" fill="#F0F0F0"/>
<path d="M623.684 127.933H460.683V549.284H623.684V127.933Z" fill="#F5F5F5"/>
<path d="M623.684 127.933V241.664L545.264 549.27L545.091 549.988L511.13 549.27L619.95 127.933H623.684Z" fill="white"/>
<path d="M479.796 294.122H460.683V357.033H479.796V294.122Z" fill="white"/>
<path d="M569.503 127.933L460.683 549.284L494.63 549.988L602.23 127.933H569.503Z" fill="white"/>
<path d="M375.098 493.453C375.044 493.455 374.99 493.446 374.939 493.426C374.889 493.407 374.843 493.378 374.804 493.34C374.765 493.303 374.734 493.258 374.713 493.208C374.692 493.158 374.681 493.105 374.681 493.051C373.417 455.628 384.819 441.355 384.934 441.211C385.005 441.125 385.106 441.071 385.217 441.06C385.327 441.05 385.437 441.083 385.523 441.154C385.609 441.224 385.663 441.326 385.674 441.436C385.684 441.546 385.651 441.657 385.58 441.742C385.465 441.872 374.265 455.959 375.528 493.022C375.532 493.077 375.525 493.132 375.506 493.185C375.488 493.237 375.459 493.285 375.421 493.325C375.384 493.365 375.338 493.398 375.287 493.42C375.236 493.442 375.182 493.453 375.126 493.453H375.098Z" fill="#E0E0E0"/>
<path d="M380.425 493.453C380.37 493.447 380.317 493.431 380.269 493.405C380.22 493.379 380.177 493.344 380.143 493.301C380.108 493.258 380.082 493.209 380.066 493.156C380.051 493.103 380.046 493.048 380.052 492.993C381.057 482.051 384.977 473.693 391.726 468.15C402.238 459.534 416.138 460.841 416.268 460.855C416.322 460.861 416.376 460.877 416.424 460.903C416.473 460.929 416.516 460.965 416.55 461.007C416.585 461.05 416.611 461.099 416.626 461.152C416.642 461.205 416.647 461.26 416.641 461.315C416.636 461.37 416.619 461.423 416.593 461.471C416.567 461.52 416.532 461.563 416.489 461.598C416.446 461.632 416.397 461.658 416.344 461.674C416.292 461.689 416.236 461.694 416.182 461.688C416.052 461.688 402.496 460.382 392.243 468.797C385.681 474.196 381.861 482.367 380.885 493.079C380.881 493.135 380.866 493.189 380.841 493.239C380.815 493.288 380.78 493.332 380.737 493.367C380.694 493.402 380.644 493.428 380.59 493.443C380.536 493.457 380.48 493.461 380.425 493.453Z" fill="#E0E0E0"/>
<path d="M407.537 461.085C405.512 457.007 388.711 454.221 398.332 445.375C407.953 436.53 407.91 455.499 412.189 455.427C418.178 455.327 417.014 429.953 426.894 436.501C436.774 443.049 417.144 453.403 420.288 458.041C423.16 462.349 440.608 448.42 440.996 456.935C441.383 465.451 422.428 459.147 421.208 464.273C420.274 468.28 438.956 471.913 430.671 477.714C422.385 483.516 419.728 465.925 415.162 467.059C411.701 467.921 416.325 482.367 409.346 480.112C402.367 477.858 409.676 465.379 407.537 461.085Z" fill="#F0F0F0"/>
<path d="M368.736 498.12C368.631 498.117 368.531 498.076 368.455 498.004C368.378 497.933 368.33 497.836 368.32 497.732C364.988 465.264 350.384 445.304 350.197 445.16C350.123 445.08 350.081 444.975 350.081 444.866C350.081 444.756 350.123 444.651 350.197 444.571C350.241 444.538 350.292 444.513 350.345 444.499C350.399 444.486 350.455 444.483 350.51 444.491C350.565 444.499 350.617 444.518 350.665 444.546C350.712 444.575 350.753 444.613 350.786 444.657C350.944 444.858 365.72 464.919 369.081 497.703C369.087 497.758 369.082 497.813 369.066 497.866C369.051 497.919 369.025 497.968 368.99 498.011C368.955 498.054 368.912 498.089 368.864 498.115C368.815 498.141 368.762 498.157 368.707 498.163L368.736 498.12Z" fill="#E0E0E0"/>
<path d="M354.132 457.452C349.063 461.674 350.743 486.258 335.076 475.675C319.409 465.092 346.076 458.802 344.64 452.8C342.5 444.385 307.16 454.494 313.048 438.44C318.936 422.385 340.102 446.553 345.66 440.55C350.757 435.051 325.326 415.133 337.187 411.744C349.049 408.355 346.492 437.161 354.132 437.161C360.077 437.161 358.971 409.633 369.928 419.369C380.885 429.106 357.004 438.712 360.091 444.758C362.475 449.353 381.272 438.009 380.425 448.606C379.578 459.204 359.46 453.029 354.132 457.452Z" fill="#E6E6E6"/>
<path d="M393.722 530.071L397.155 489.676H348.23L351.676 530.099C352.123 535.368 354.531 540.276 358.424 543.853C362.318 547.43 367.412 549.414 372.699 549.414C377.991 549.414 383.09 547.425 386.984 543.842C390.878 540.26 393.283 535.344 393.722 530.071Z" fill="#F5F5F5"/>
<path d="M381.875 454.063C386.945 458.285 385.264 482.869 400.931 472.286C416.598 461.703 389.874 455.413 391.411 449.411C393.55 440.996 428.89 451.105 423.003 435.051C417.115 418.996 395.948 443.164 390.391 437.161C385.279 431.662 410.725 411.744 398.863 408.355C387.002 404.966 389.558 433.773 381.919 433.773C375.973 433.773 377.079 406.244 366.123 415.98C355.166 425.717 379.047 435.323 375.959 441.369C373.575 445.964 354.778 434.62 355.625 445.217C356.473 455.815 376.548 449.64 381.875 454.063Z" fill="#F5F5F5"/>
<path d="M253.526 350.384H55.8604V548.049H253.526V350.384Z" fill="#EBEBEB"/>
<path d="M239.941 365.505H70.9815V547.69H239.941V365.505Z" fill="#FAFAFA"/>
<path d="M86.878 441.24H81.1627V461.947H86.878V441.24Z" fill="#E6E6E6"/>
<path d="M84.0203 431.619H78.3051V472.3H84.0203V431.619Z" fill="white"/>
<path d="M86.8636 431.619H78.3051V437.793H86.8636V431.619Z" fill="white"/>
<path d="M86.8636 466.111H78.3051V472.286H86.8636V466.111Z" fill="white"/>
<path d="M359 613.186C512.77 613.186 637.426 605.909 637.426 596.931C637.426 587.953 512.77 580.675 359 580.675C205.23 580.675 80.574 587.953 80.574 596.931C80.574 605.909 205.23 613.186 359 613.186Z" fill="#F5F5F5"/>
<path d="M592.336 246.116C591.589 248.343 590.302 250.35 588.591 251.959C586.879 253.567 584.796 254.727 582.528 255.335H582.456C580.475 255.83 578.466 256.204 576.439 256.455L575.448 256.584C568.584 257.389 561.548 257.231 554.669 258.222L553.635 258.379C550.22 259.071 546.76 259.522 543.282 259.729C542.505 259.744 541.729 259.715 540.956 259.643C537.88 259.49 534.935 258.352 532.555 256.398C529.525 253.698 528.247 249.677 527.457 245.628C529.525 244.996 531.818 244.273 534.336 243.459C552.602 237.457 532.67 227.405 539.132 211.35C548.164 188.891 585.084 190.471 584.452 205.793C596.012 208.68 597.663 230.808 592.336 246.116Z" fill="#263238"/>
<path d="M541.473 219.205C540.625 222.709 540.352 226.385 539.089 229.746C537.825 233.106 535.283 236.323 531.751 237.041C537.064 239.396 543.641 236.796 547.231 232.23C550.821 227.663 551.97 221.589 552.085 215.759C552.085 214.409 552.329 212.786 551.381 211.839C544.589 205.09 542.305 215.702 541.473 219.205Z" fill="#263238"/>
<path d="M536.36 279.173L534.924 280.465L533.79 281.47C532.957 282.217 532.139 282.906 531.291 283.567C529.611 284.902 527.917 286.238 526.179 287.473C525.82 287.717 525.461 287.975 525.116 288.191C524.775 288.448 524.42 288.688 524.054 288.909L523.207 289.483C520.593 291.206 517.951 292.815 515.237 294.337C513.265 295.419 511.269 296.424 509.249 297.353C507.353 298.243 505.415 299.061 503.505 299.808L500.432 300.914C499.383 301.273 498.335 301.56 497.316 301.905L495.736 302.379L494.027 302.809C492.907 303.068 491.773 303.326 490.681 303.499C482.149 304.733 473.489 304.82 464.934 303.757C460.769 303.312 456.634 302.694 452.555 301.991C449.683 301.488 446.811 300.899 443.939 300.196C442.748 299.923 441.541 299.607 440.335 299.277L441.584 292.843L445.031 293.145C447.903 293.375 450.703 293.59 453.518 293.719C457.495 293.906 461.473 294.122 465.436 294.122C473.111 294.284 480.781 293.615 488.312 292.125C489.188 291.924 490.049 291.68 490.897 291.436L492.132 291.034L493.453 290.532C494.314 290.187 495.176 289.928 496.095 289.512L498.637 288.363C502.074 286.772 505.429 285.008 508.689 283.079C510.943 281.743 513.169 280.307 515.352 278.771L516.658 277.852C516.917 277.679 517.19 277.493 517.448 277.292L518.281 276.703L518.54 276.516C519.976 275.468 521.412 274.348 522.848 273.228L525.03 271.418L527.055 269.666L533.862 276.674L536.36 279.173Z" fill="#FFC3BD"/>
<path d="M446.495 293.59L433.672 289.612L436.013 302.364C436.013 302.364 442.877 302.364 446.151 298.358L446.495 293.59Z" fill="#FFC3BD"/>
<path d="M424.726 292.226L427.167 300.526L436.041 302.364L433.701 289.612L424.726 292.226Z" fill="#FFC3BD"/>
<path d="M434.821 293.202C433.457 290.957 432.709 288.391 432.652 285.764C432.782 282.346 434.72 282.59 434.72 282.59C434.72 282.59 434.361 286.654 439.674 293.504L439.804 293.691L434.821 293.202Z" fill="#FFC3BD"/>
<path d="M545.68 275.712C544.574 279.044 540.424 282.16 536.073 284.615C532.746 286.467 529.29 288.079 525.734 289.44L524.571 289.871L524.054 288.981L517.52 277.421L516.443 275.511L517.391 274.549C521.783 270.145 526.592 266.177 531.751 262.702C534.45 261.065 536.949 260.074 538.658 260.476C546.484 262.185 547.891 269.164 545.68 275.712Z" fill="#FF4D40"/>
<path opacity="0.3" d="M545.68 275.712C544.574 279.044 540.424 282.16 536.073 284.615C532.746 286.467 529.29 288.079 525.734 289.44L524.571 289.871L524.054 288.981L517.52 277.421L516.443 275.511L517.391 274.549C521.783 270.145 526.592 266.177 531.751 262.702C534.45 261.065 536.949 260.074 538.658 260.476C546.484 262.185 547.891 269.164 545.68 275.712Z" fill="black"/>
<path d="M525.777 289.368C525.852 289.621 525.835 289.892 525.73 290.133C525.625 290.375 525.438 290.572 525.203 290.689C524.948 290.823 524.653 290.857 524.374 290.785C524.096 290.713 523.854 290.541 523.695 290.302L523.25 289.483L516.773 277.909L515.625 275.856C515.551 275.724 515.504 275.578 515.486 275.428C515.469 275.278 515.481 275.126 515.522 274.981C515.563 274.835 515.633 274.699 515.727 274.581C515.821 274.462 515.937 274.364 516.07 274.29C516.16 274.24 516.257 274.201 516.357 274.175C516.545 274.135 516.74 274.141 516.926 274.194C517.111 274.246 517.281 274.344 517.42 274.477C517.498 274.554 517.565 274.641 517.621 274.736L518.64 276.574L525.145 288.191L525.691 289.167C525.713 289.237 525.742 289.304 525.777 289.368Z" fill="#FF4D40"/>
<path d="M595.94 258.954C600.521 261.065 601.081 262.271 600.363 265.588C598.927 272.007 597.807 277.694 596.859 282.82C596.629 284.055 596.414 285.261 596.198 286.425C596.198 286.64 596.127 286.855 596.084 287.085C596.084 287.315 595.997 287.516 595.954 287.731C595.911 287.947 595.839 288.421 595.768 288.751C591.244 299.176 589.392 311.856 590.555 330.538C590.656 331.974 590.67 333.41 590.742 334.846H586.06H570.695H568.354L550.404 334.961H548.078H542.98C542.851 334.157 542.722 333.396 542.593 332.621C541.271 324.809 540.18 317.816 539.261 311.612C538.744 308.065 538.27 304.762 537.825 301.704C537.825 301.704 530.157 292.24 532.957 286.439C534.608 283.036 535.369 262.214 535.657 261.309C535.944 260.404 536.188 260.419 536.188 260.419C537.624 260.117 539.06 259.815 540.424 259.557C544.608 258.705 548.81 257.997 553.032 257.432C554.468 257.231 555.976 257.044 557.455 256.886C563.264 256.429 569.093 256.295 574.917 256.484C575.29 256.484 575.635 256.484 576.008 256.484C577.444 256.484 578.88 256.599 580.316 256.685C582.011 256.771 583.705 256.915 585.385 257.058C587.641 257.177 589.889 257.412 592.12 257.762L595.94 258.954Z" fill="#FF4D40"/>
<path d="M572.347 231.397C571.14 238.792 570.164 252.305 575.477 257.03C575.477 257.03 572.749 272.969 559.308 275.382C552.817 273.745 552.645 257.819 552.645 257.819C560.715 255.565 558.015 247.495 558.59 239.324L572.347 231.397Z" fill="#FFC3BD"/>
<path opacity="0.2" d="M557.01 231.397C558.446 237.256 559.882 247.078 557.814 253.353C562.122 252.449 568.498 249.045 569.388 245.24C569.649 242.669 569.702 240.08 569.546 237.5L557.01 231.397Z" fill="black"/>
<path d="M582.083 221.733C580.46 233.924 580.043 239.123 573.467 244.967C563.501 253.77 548.882 249.117 546.814 236.71C544.948 225.509 547.891 207.459 560.227 203.424C562.94 202.529 565.838 202.34 568.644 202.877C571.451 203.413 574.075 204.657 576.267 206.49C578.459 208.322 580.148 210.684 581.173 213.351C582.198 216.019 582.526 218.903 582.126 221.733H582.083Z" fill="#FFC3BD"/>
<path d="M579.153 207.129C571.643 215.357 547.791 216.893 544.172 214.625C551.496 204.415 562.84 198.642 569.23 199.977C573.316 201.036 576.856 203.588 579.153 207.129Z" fill="#263238"/>
<path d="M584.265 205.779H584.165L583.964 206.052L584.265 205.779Z" fill="#263238"/>
<path d="M584.452 205.592L584.237 205.779C584.286 205.769 584.331 205.747 584.369 205.714C584.407 205.681 584.435 205.639 584.452 205.592Z" fill="#263238"/>
<path d="M584.165 205.779V205.693L583.964 205.779C583.964 205.779 584.122 205.779 584.165 205.779Z" fill="#263238"/>
<path d="M584.983 197.708C585.587 198.985 585.835 200.4 585.701 201.805C585.567 203.211 585.056 204.554 584.222 205.693C584.992 205.385 585.662 204.872 586.159 204.209C586.656 203.545 586.961 202.758 587.039 201.933C587.118 201.108 586.968 200.277 586.605 199.532C586.242 198.786 585.681 198.156 584.983 197.708Z" fill="#263238"/>
<path d="M585.658 233.752C585.002 234.741 584.157 235.59 583.171 236.251C582.185 236.911 581.078 237.37 579.914 237.601C576.812 238.189 575.52 235.375 576.597 232.589C577.559 230.062 580.345 226.845 583.332 227.376C584.376 227.628 585.277 228.283 585.84 229.198C586.402 230.113 586.579 231.213 586.333 232.259C586.21 232.797 585.981 233.304 585.658 233.752Z" fill="#FFC3BD"/>
<path d="M574.658 208.076C572.82 210.245 573.007 213.347 573.05 216.19C573.165 224.519 574.156 234.973 567.794 238.62C575.319 236.524 581.336 232.977 585.17 226.17C588.2 220.785 588.042 217.554 585.744 211.81C584.021 207.473 578.837 203.194 574.658 208.076Z" fill="#263238"/>
<path opacity="0.1" d="M585.543 267.283C585.543 267.283 585.026 289.67 586.979 299.593C588.932 309.515 590.469 307.046 590.469 307.046C590.469 307.046 591.431 291.637 593.341 287.344C595.251 283.05 585.543 267.283 585.543 267.283Z" fill="black"/>
<path d="M607.327 285.879C607.198 287.401 607.112 289.253 607.026 290.962C606.94 292.671 606.897 294.466 606.897 296.218C606.897 299.736 606.897 303.269 607.17 306.758C607.581 313.671 608.654 320.528 610.372 327.236C610.831 328.83 611.305 330.51 611.808 332.046C612.31 333.583 613 335.177 613.675 336.771C615.111 339.959 616.647 343.204 618.284 346.421C621.573 352.868 625.062 359.345 628.523 365.807L623.009 369.684C618.039 363.98 613.426 357.976 609.194 351.705C607.055 348.575 605.016 345.358 603.12 341.912C602.172 340.188 601.253 338.436 600.42 336.512C599.587 334.588 598.984 332.75 598.266 330.854C595.826 323.36 594.274 315.605 593.642 307.749C593.269 303.874 593.097 299.982 593.125 296.089C593.125 294.136 593.125 292.226 593.269 290.273C593.413 288.32 593.484 286.453 593.729 284.299L607.327 285.879Z" fill="#FFC3BD"/>
<path d="M626.757 364.414L636.091 370.948L624.66 378.242C624.66 378.242 619.591 371.35 621.86 364.342L626.757 364.414Z" fill="#FFC3BD"/>
<path d="M639.264 381.703L629.471 386.873L624.703 378.257L636.091 370.948L639.264 381.703Z" fill="#FFC3BD"/>
<path d="M609.539 269.293C611.693 285.477 606.839 288.105 606.839 288.105L591.689 289.541C591.689 289.541 584.237 266.981 588.631 261.467C593.212 255.723 608.491 261.438 609.539 269.293Z" fill="#FF4D40"/>
<path opacity="0.3" d="M609.539 269.293C611.693 285.477 606.839 288.105 606.839 288.105L591.689 289.541C591.689 289.541 584.237 266.981 588.631 261.467C593.212 255.723 608.491 261.438 609.539 269.293Z" fill="black"/>
<path d="M608.275 287.875C608.303 288.187 608.208 288.497 608.009 288.739C607.81 288.981 607.524 289.135 607.213 289.167L591.819 290.603C591.508 290.631 591.2 290.535 590.96 290.336C590.721 290.137 590.57 289.851 590.541 289.541C590.508 289.234 590.599 288.927 590.793 288.688C590.987 288.448 591.268 288.295 591.575 288.263L606.968 286.827C607.28 286.794 607.592 286.886 607.837 287.082C608.082 287.279 608.239 287.563 608.275 287.875Z" fill="#FF4D40"/>
<path d="M542.55 332.707L540.453 337.288C540.281 337.647 540.668 338.006 541.286 337.963L590.699 335.722C591.158 335.722 591.531 335.464 591.546 335.191L591.847 330.682C591.847 330.366 591.46 330.108 590.957 330.122L543.368 332.262C543.205 332.259 543.044 332.299 542.9 332.377C542.757 332.455 542.636 332.568 542.55 332.707Z" fill="#263238"/>
<path d="M549.615 338.135H548.265C547.992 338.135 547.777 338.02 547.791 337.862L548.222 331.989C548.222 331.831 548.466 331.673 548.739 331.659H550.103C550.361 331.659 550.591 331.788 550.562 331.946L550.146 337.819C550.103 337.922 550.029 338.008 549.933 338.065C549.837 338.122 549.725 338.147 549.615 338.135Z" fill="#FF4D40"/>
<path d="M587.18 336.771H585.831C585.558 336.771 585.342 336.656 585.342 336.484L585.773 330.61C585.773 330.452 586.017 330.28 586.29 330.28H587.726C587.777 330.262 587.831 330.257 587.885 330.263C587.939 330.269 587.99 330.288 588.036 330.317C588.081 330.346 588.12 330.384 588.148 330.43C588.177 330.476 588.194 330.528 588.2 330.582L587.784 336.455C587.697 336.613 587.453 336.756 587.18 336.771Z" fill="#FF4D40"/>
<path d="M569.948 337.46H568.584C568.534 337.478 568.48 337.484 568.428 337.478C568.375 337.471 568.324 337.453 568.279 337.423C568.235 337.394 568.198 337.355 568.171 337.309C568.144 337.263 568.128 337.212 568.125 337.158L568.541 331.3C568.541 331.142 568.8 330.984 569.072 330.969H570.422C570.695 330.969 570.911 331.099 570.896 331.271L570.465 337.144C570.451 337.316 570.178 337.46 569.948 337.46Z" fill="#FF4D40"/>
<path d="M563.271 223.858C563.199 224.849 562.596 225.596 561.964 225.567C561.332 225.538 560.83 224.691 560.902 223.686C560.973 222.681 561.562 221.948 562.208 221.977C562.855 222.006 563.328 222.867 563.271 223.858Z" fill="#263238"/>
<path d="M551.998 223.068C551.912 224.059 551.338 224.82 550.692 224.791C550.045 224.763 549.557 223.901 549.643 222.896C549.73 221.891 550.29 221.144 550.936 221.173C551.582 221.201 552.113 222.049 551.998 223.068Z" fill="#263238"/>
<path d="M551.223 221.245L548.897 220.455C548.897 220.455 549.988 222.293 551.223 221.245Z" fill="#263238"/>
<path d="M554.856 224.992C553.806 227.201 552.463 229.259 550.864 231.11C551.346 231.504 551.907 231.789 552.51 231.945C553.112 232.101 553.741 232.125 554.353 232.015L554.856 224.992Z" fill="#ED847E"/>
<path d="M559.437 236.093C558.826 236.15 558.21 236.15 557.599 236.093C557.567 236.091 557.535 236.083 557.506 236.069C557.477 236.055 557.452 236.035 557.43 236.011C557.409 235.987 557.393 235.959 557.382 235.929C557.371 235.898 557.367 235.866 557.369 235.834C557.376 235.771 557.406 235.712 557.454 235.67C557.502 235.627 557.564 235.604 557.628 235.605C558.876 235.724 560.134 235.545 561.3 235.083C562.466 234.621 563.506 233.89 564.334 232.948C564.347 232.92 564.366 232.895 564.39 232.875C564.413 232.855 564.441 232.84 564.47 232.83C564.5 232.821 564.531 232.818 564.562 232.821C564.592 232.823 564.622 232.833 564.65 232.847C564.678 232.856 564.703 232.872 564.725 232.892C564.747 232.912 564.763 232.937 564.774 232.964C564.785 232.991 564.79 233.021 564.788 233.05C564.787 233.08 564.779 233.109 564.764 233.135C563.447 234.784 561.533 235.847 559.437 236.093Z" fill="#263238"/>
<path d="M567.909 217.109C567.826 217.115 567.742 217.101 567.664 217.069C567.587 217.037 567.518 216.986 567.464 216.922C567.018 216.313 566.431 215.821 565.754 215.488C565.076 215.155 564.327 214.992 563.573 215.012C563.442 215.02 563.313 214.977 563.213 214.891C563.114 214.805 563.052 214.684 563.041 214.553C563.035 214.489 563.042 214.425 563.062 214.365C563.081 214.304 563.112 214.248 563.154 214.2C563.196 214.151 563.246 214.112 563.304 214.084C563.361 214.056 563.423 214.039 563.486 214.036C564.402 214.002 565.313 214.192 566.139 214.59C566.965 214.988 567.681 215.581 568.225 216.319C568.266 216.368 568.296 216.424 568.314 216.485C568.332 216.545 568.338 216.609 568.332 216.672C568.325 216.735 568.306 216.795 568.275 216.851C568.244 216.906 568.203 216.955 568.153 216.994C568.083 217.052 567.999 217.092 567.909 217.109Z" fill="#263238"/>
<path d="M547.949 215.989C547.867 216.01 547.78 216.011 547.698 215.991C547.615 215.971 547.538 215.931 547.475 215.874C547.384 215.782 547.333 215.658 547.333 215.529C547.333 215.4 547.384 215.276 547.475 215.185C548.09 214.506 548.861 213.986 549.722 213.671C550.582 213.356 551.506 213.254 552.415 213.375C552.538 213.393 552.65 213.459 552.725 213.558C552.8 213.658 552.833 213.783 552.817 213.907C552.807 213.969 552.784 214.028 552.75 214.082C552.716 214.135 552.671 214.18 552.618 214.215C552.566 214.25 552.506 214.274 552.444 214.285C552.382 214.296 552.318 214.295 552.257 214.28C551.508 214.197 550.751 214.293 550.047 214.56C549.343 214.827 548.712 215.258 548.207 215.816C548.14 215.898 548.05 215.958 547.949 215.989Z" fill="#263238"/>
<path d="M519.832 586.908C519.487 586.807 518.468 586.534 517.305 586.29C515.423 585.917 513.14 585.629 512.451 586.29C512.342 586.389 512.264 586.519 512.229 586.662C512.193 586.805 512.2 586.955 512.25 587.094C512.3 587.358 512.411 587.606 512.573 587.82C512.735 588.034 512.944 588.209 513.183 588.329C514.121 588.712 515.156 588.792 516.141 588.559C517.211 588.349 518.259 588.041 519.272 587.64C519.466 587.548 519.653 587.443 519.832 587.324C519.879 587.308 519.918 587.276 519.944 587.234C519.971 587.193 519.982 587.143 519.976 587.094C519.971 587.053 519.955 587.014 519.93 586.981C519.904 586.948 519.871 586.923 519.832 586.908ZM513.399 587.855C513.218 587.772 513.059 587.646 512.937 587.488C512.815 587.331 512.732 587.147 512.695 586.951C512.675 586.891 512.673 586.827 512.688 586.766C512.703 586.705 512.736 586.649 512.781 586.606C512.936 586.479 513.127 586.404 513.327 586.391C515.268 586.317 517.208 586.559 519.071 587.109C517.563 587.712 514.749 588.559 513.413 587.855H513.399Z" fill="#FF4D40"/>
<path d="M535.556 590.124L523.68 590.799L521.167 561.016L533.029 560.327L535.556 590.124Z" fill="#FFC3BD"/>
<path d="M617.135 569.834L605.619 574.271L595.725 547.188L607.241 542.765L617.135 569.834Z" fill="#FFC3BD"/>
<path d="M605.217 573.222L616.058 564.52C616.239 564.362 616.471 564.274 616.712 564.274C616.952 564.274 617.184 564.362 617.365 564.52L626.642 572.921C627.013 573.292 627.221 573.796 627.221 574.321C627.221 574.846 627.013 575.35 626.642 575.721C626.591 575.781 626.533 575.834 626.469 575.879C622.65 578.852 620.639 580.087 615.915 583.935C613.043 586.348 605.863 593.255 601.741 596.5C597.62 599.745 593.054 595.064 594.561 593.398C600.837 585.673 603.321 579.268 604.154 575.089C604.288 574.365 604.662 573.708 605.217 573.222Z" fill="#263238"/>
<path d="M522.144 585.069L536.633 582.671C536.904 582.628 537.181 582.675 537.422 582.805C537.664 582.934 537.856 583.14 537.969 583.389L543.023 594.346C543.226 594.787 543.248 595.289 543.084 595.745C542.92 596.202 542.584 596.576 542.147 596.787C541.984 596.863 541.81 596.912 541.63 596.931C536.533 597.821 534.106 598.151 527.73 599.243C523.795 599.889 512.523 603.637 507.066 603.019C501.609 602.402 501.221 596.902 503.49 596.672C513.628 595.581 517.707 589.579 520.263 586.218C520.72 585.61 521.393 585.199 522.144 585.069Z" fill="#263238"/>
<path opacity="0.2" d="M521.153 561.031L522.46 576.382L534.436 576.913L533.029 560.342L521.153 561.031Z" fill="black"/>
<path opacity="0.2" d="M608.433 545.967L596.916 550.39L602.029 564.348L613.531 559.925L608.433 545.967Z" fill="black"/>
<path d="M541.961 337.331C541.961 337.331 512.81 402.267 511.561 456.332C510.728 492.548 516.96 567.636 516.96 567.636L537.883 572.045C537.883 572.045 539.003 495.104 541.674 465.393C546.254 414.544 578.837 336.024 578.837 336.024L541.961 337.331Z" fill="#FF4D40"/>
<path opacity="0.4" d="M541.961 337.331C541.961 337.331 512.81 402.267 511.561 456.332C510.728 492.548 516.96 567.636 516.96 567.636L537.883 572.045C537.883 572.045 539.003 495.104 541.674 465.393C546.254 414.544 578.837 336.024 578.837 336.024L541.961 337.331Z" fill="white"/>
<path opacity="0.2" d="M559.825 361.355L563.731 376.232C557.285 394.727 551.768 413.534 547.202 432.581C542.664 404.291 554.397 374.049 559.825 361.355Z" fill="black"/>
<path d="M513.054 571.011L539.62 573.05L539.993 562.941L512.063 561.792L513.054 571.011Z" fill="#FF4D40"/>
<path d="M552.961 337.058C552.961 337.058 547.015 410.897 557.929 458.156C566.746 496.325 598.324 558.547 598.324 558.547L612.684 549.371C612.684 549.371 601.426 500.791 594.231 475.115C576.583 412.132 608.376 376.261 592.221 335.478L552.961 337.058Z" fill="#FF4D40"/>
<path opacity="0.4" d="M552.961 337.058C552.961 337.058 547.015 410.897 557.929 458.156C566.746 496.325 598.324 558.547 598.324 558.547L612.684 549.371C612.684 549.371 601.426 500.791 594.231 475.115C576.583 412.132 608.376 376.261 592.221 335.478L552.961 337.058Z" fill="white"/>
<path d="M595.552 561.045L615.699 553.793L613.933 545.378L591.56 554.195L595.552 561.045Z" fill="#FF4D40"/>
<path d="M605.217 574.888H605.145H604.987L604.14 575.161C603.766 575.305 603.307 575.463 602.833 575.664C601.512 576.224 600.076 576.999 599.832 577.832C599.79 577.997 599.792 578.169 599.837 578.333C599.882 578.497 599.969 578.646 600.09 578.765C600.336 579.07 600.673 579.286 601.052 579.383H601.497C602.247 579.199 602.911 578.763 603.378 578.148C604.11 577.3 604.732 576.364 605.231 575.362C605.234 575.329 605.234 575.295 605.231 575.262C605.238 575.238 605.238 575.213 605.231 575.19C605.251 575.17 605.267 575.146 605.278 575.119C605.289 575.093 605.293 575.064 605.292 575.036C605.291 575.007 605.283 574.979 605.27 574.954C605.257 574.928 605.239 574.906 605.217 574.888ZM604.527 575.52C604.28 575.985 604.007 576.436 603.709 576.87C603.218 577.785 602.42 578.498 601.454 578.88C601.256 578.896 601.056 578.861 600.875 578.778C600.694 578.695 600.538 578.567 600.42 578.406C600.359 578.349 600.313 578.276 600.288 578.196C600.263 578.115 600.259 578.029 600.277 577.947C600.506 577.143 602.517 576.238 603.996 575.707L604.527 575.52Z" fill="#FF4D40"/>
<path d="M605.188 574.874H605.116C604.891 574.673 604.651 574.491 604.398 574.328C603.327 573.424 601.992 572.89 600.593 572.806C600.379 572.835 600.174 572.909 599.991 573.023C599.808 573.137 599.651 573.288 599.53 573.467C599.39 573.642 599.314 573.86 599.314 574.084C599.314 574.308 599.39 574.526 599.53 574.702C599.983 575.141 600.569 575.418 601.196 575.491C601.731 575.594 602.274 575.647 602.818 575.649C603.22 575.671 603.623 575.671 604.025 575.649C604.398 575.649 604.771 575.506 605.13 575.42H605.217C605.22 575.386 605.22 575.353 605.217 575.319C605.223 575.296 605.223 575.271 605.217 575.247C605.242 575.222 605.262 575.192 605.274 575.159C605.287 575.125 605.292 575.089 605.289 575.054C605.287 575.018 605.276 574.984 605.259 574.953C605.241 574.921 605.217 574.895 605.188 574.874ZM599.903 574.357C599.832 574.256 599.717 574.07 599.903 573.711C599.984 573.584 600.091 573.478 600.218 573.398C600.344 573.319 600.487 573.269 600.636 573.251C600.86 573.223 601.087 573.223 601.311 573.251C602.346 573.554 603.319 574.04 604.183 574.687L604.484 574.917C604.36 574.924 604.235 574.924 604.111 574.917C602.675 575.233 600.463 575.046 599.903 574.4V574.357Z" fill="#FF4D40"/>
<path d="M520.134 587.065C520.079 586.923 520.017 586.784 519.947 586.649C519.358 585.414 517.52 581.939 515.165 582.657C514.476 582.858 514.303 583.246 514.318 583.533C514.318 584.351 515.754 585.457 517.19 586.276C517.783 586.606 518.397 586.899 519.028 587.152L519.416 587.281L519.76 587.381H519.875L520.047 587.295C520.078 587.266 520.101 587.23 520.116 587.19C520.131 587.15 520.137 587.108 520.134 587.065ZM514.82 583.519C514.82 583.519 514.82 583.274 515.28 583.145H515.495C517.319 582.872 518.87 585.716 519.43 586.85C517.563 586.161 514.849 584.452 514.82 583.519Z" fill="#FF4D40"/>
<path d="M562.496 222.034L560.155 221.23C560.155 221.23 561.246 223.14 562.496 222.034Z" fill="#263238"/>
<path d="M104.268 129.513L105.216 140.355H79.9708L82.1823 165.6H71.3405L68.1813 129.513H104.268Z" fill="#FF4D40"/>
<path d="M137.023 512.437L136.075 501.595H110.83L108.619 476.336H97.7772L100.936 512.437H137.023Z" fill="#FF4D40"/>
<path d="M356.573 512.437L355.625 501.595H380.87L378.659 476.35H389.501L392.66 512.437H356.573Z" fill="#FF4D40"/>
<path d="M322.368 130.389L323.315 141.231H348.575L350.786 166.49H361.614L358.469 130.389H322.368Z" fill="#FF4D40"/>
<path d="M273.343 165.14L276.904 165.786L273.96 163.517C273.185 162.914 272.38 162.311 271.591 161.737L271.404 161.593H271.174C252.98 157.96 230.837 151.599 205.348 142.451L205.133 142.365H204.903C204.056 142.48 203.208 142.624 202.375 142.781L199.188 143.399L202.375 144.562C230.148 154.672 254.028 161.564 273.343 165.14Z" fill="#FF4D40"/>
<path d="M286.453 176.729L289.325 177.403L287.2 175.192C286.654 174.618 286.094 174.072 285.52 173.512L285.319 173.325H285.046C259.658 167.294 227.52 158.448 189.566 147.061L189.222 146.96L188.92 147.089L187.269 147.879L185.215 148.899L187.542 149.602C227.204 161.478 260.476 170.626 286.453 176.729Z" fill="#FF4D40"/>
<path d="M298.516 190.528L301.388 191.534L299.535 189.136C299.262 188.777 298.975 188.432 298.702 188.087L298.329 187.628V187.269L297.697 187.039C275.741 179.285 237.098 167.294 177.633 154.155L177.231 154.068L176.915 154.298C176.484 154.614 176.054 154.916 175.623 155.26L174.086 156.467L176.111 156.912C236.94 170.338 276.286 182.602 298.516 190.528Z" fill="#FF4D40"/>
<path d="M309.63 206.526L312.502 207.962L310.765 205.233L309.515 203.266L309.357 203.022L309.099 202.907C282.662 189.581 236.61 171.832 167.323 162.871H166.892L166.605 163.158L165.485 164.278L164.221 165.614L166.16 165.858C236.739 174.833 283.136 192.927 309.63 206.526Z" fill="#FF4D40"/>
<path d="M290.962 207.358C300.793 212.196 310.287 217.689 319.381 223.801L322.253 225.696L320.745 222.695C320.443 222.092 320.127 221.517 319.826 220.929L319.682 220.67V220.369L319.266 220.096C310.6 214.392 301.589 209.232 292.283 204.644C264.999 191.117 219.593 174.632 158.362 172.837H157.917L157.658 173.167L156.711 174.359L155.476 175.795H157.5C218.53 177.475 263.764 193.86 290.962 207.358Z" fill="#FF4D40"/>
<path d="M163.56 201.227L164.479 201.313V198.24L163.546 198.154C156.085 197.563 148.577 198.247 141.345 200.178L140.972 200.279L140.814 200.638C140.584 201.126 140.369 201.614 140.154 202.074L139.364 203.955L141.345 203.381C148.563 201.344 156.086 200.615 163.56 201.227Z" fill="#FF4D40"/>
<path d="M291.982 217.439C304.545 224.415 316.48 232.468 327.652 241.506L330.28 243.689L329.002 240.544C328.686 239.755 328.341 238.979 327.997 238.218L327.896 237.988L327.695 237.816C277.516 197.928 214.059 178.588 150.163 183.708H149.732L149.516 184.052C149.243 184.469 148.985 184.899 148.727 185.33L149.502 185.905L148.698 185.388L147.721 186.996L149.66 186.838C199.089 182.65 248.643 193.305 291.982 217.439Z" fill="#FF4D40"/>
<path d="M196.272 195.296C229.2 198.929 279.56 211.867 332.276 252.865L334.732 254.775L333.669 251.903C333.482 251.386 333.281 250.869 333.08 250.338L332.908 249.893V249.577L332.549 249.304C279.647 208.708 229.272 195.856 196.316 192.223C179.34 190.311 162.2 190.369 145.237 192.395H144.806L143.054 195.77L144.935 195.526C161.979 193.427 179.211 193.35 196.272 195.296Z" fill="#FF4D40"/>
<path d="M136.334 314.383L133.462 313.177L133.16 314.01C128.824 328.042 125.913 342.475 124.472 357.09V357.234V357.377C124.745 358.67 125.047 359.962 125.363 361.255L126.713 366.855L127.187 361.269C128.458 345.639 131.438 330.196 136.075 315.216L136.334 314.383Z" fill="#FF4D40"/>
<path d="M131.509 262.285V261.352L128.407 261.165V262.099C128.938 281.47 126.727 304.992 121.227 338.379V338.652C121.399 340.088 121.6 341.524 121.816 342.874L122.692 348.718L123.64 342.974C129.628 307.448 132.112 282.547 131.509 262.285Z" fill="#FF4D40"/>
<path d="M139.938 304.604L143.916 292.14L140.943 290.991L136.994 303.456L139.938 304.604Z" fill="#FF4D40"/>
<path d="M131.997 254.172C132.829 248.24 135.496 242.717 139.622 238.376L140.297 237.759L138.057 235.504L137.425 236.093C132.794 240.858 129.815 246.984 128.924 253.569L128.824 254.459L131.897 255.105L131.997 254.172Z" fill="#FF4D40"/>
<path d="M133.218 279.532L136.319 279.905V278.986C136.607 270.614 144.935 258.882 145.352 258.423L145.869 257.705L143.327 255.78L142.796 256.484C142.451 257.044 133.548 269.049 133.246 278.584L133.218 279.532Z" fill="#FF4D40"/>
<path d="M151.297 264.77L151.958 264.138L149.602 261.869L148.985 262.53C147.879 263.721 138.028 274.75 132.801 297.338L132.6 298.214L135.63 299.148L135.831 298.272C141.116 275.425 151.211 264.87 151.297 264.77Z" fill="#FF4D40"/>
<path d="M153.078 276.473L150.407 274.692L143.657 285.678L146.343 287.458L153.078 276.473Z" fill="#FF4D40"/>
<path d="M154.801 238.649L155.648 238.39L154.499 235.432L153.638 235.705C152.977 235.92 137.526 240.975 133.246 256.943L133.017 257.819L136.004 258.839L136.233 257.977C140.139 243.445 154.198 238.85 154.801 238.649Z" fill="#FF4D40"/>
<path d="M159.396 218.459L160.315 218.329L159.583 215.285L158.692 215.414C144.06 217.54 135.716 222.81 131.322 226.902L131.021 227.204V227.462L129.24 233.81L131.968 230.851C135.271 227.218 143.298 220.799 159.396 218.459Z" fill="#FF4D40"/>
<path d="M200.624 206.784C233.465 208.062 283.725 219.263 336.742 265.387L339.226 267.541L338.192 264.482C337.948 263.779 337.718 263.047 337.46 262.386V262.084L337.13 261.812C283.854 216.075 233.379 204.975 200.423 203.711C166.633 202.404 142.58 210.747 136.018 213.332L135.688 213.461L135.558 213.792C135.386 214.223 135.228 214.668 135.085 215.098L134.237 217.482L136.262 216.649C140.728 214.682 165.14 205.348 200.624 206.784Z" fill="#FF4D40"/>
<path d="M204.529 215.027C167.007 216.463 141.733 231.656 140.656 232.259L139.881 232.718L141.704 235.36L142.466 234.901C143.499 234.269 168.227 219.406 204.96 218.042C237.543 216.807 287.559 226.184 340.748 277.852L343.19 280.221L342.256 277.019C342.026 276.243 341.782 275.468 341.538 274.707L341.466 274.448L341.265 274.262C287.746 223.083 237.371 213.806 204.529 215.027Z" fill="#FF4D40"/>
<path d="M274.003 235.676C253.358 227.077 230.857 223.893 208.636 226.428C171.444 230.837 147.118 250.568 146.888 250.769L146.228 251.329L148.296 253.756L148.971 253.196C166.705 240.248 187.477 232.087 209.283 229.502C241.507 225.667 291.135 233.178 344.267 290.575L346.722 293.217L345.818 289.814C345.588 288.981 345.372 288.162 345.143 287.344V287.099L344.97 286.927C322.281 262.788 298.401 245.556 274.003 235.676Z" fill="#FF4D40"/>
<path d="M244.12 236.078C190.988 231.253 153.652 268.79 153.25 269.106L152.618 269.738L154.944 271.964L155.562 271.347C155.921 270.973 192.424 234.37 244.106 239.08C279.776 242.325 314.57 263.894 347.498 303.183L349.996 306.155L349.092 302.479C348.891 301.646 348.689 300.842 348.503 300.009V299.751L348.302 299.507C315.116 260.735 280.02 239.367 244.12 236.078Z" fill="#FF4D40"/>
<path d="M155.088 293.935C180.706 257.188 232.359 233.077 290.072 262.056C320.07 277.119 332.621 295.012 347.153 315.719C348.532 317.682 349.939 319.673 351.375 321.693L353.73 324.996L353.026 321.118C352.854 320.185 352.696 319.266 352.524 318.433V318.16L352.366 317.945C351.447 316.652 350.542 315.374 349.652 314.082C334.832 293.001 322.037 274.793 291.293 259.327C231.971 229.516 178.868 254.273 152.546 292.025C128.508 326.489 130.216 366.194 133.39 386.801V387.002C134.137 388.969 134.826 390.937 135.659 392.861L137.425 392.488C130.317 356.128 136.765 320.228 155.088 293.935Z" fill="#FF4D40"/>
<path d="M280.939 392.645C275.497 378.63 272.912 377.151 270.887 377.639C265.861 378.846 270.514 397.126 270.557 397.312C273.142 407.207 314.039 429.91 331.501 439.201L332.29 439.631L333.726 437.018L332.836 436.544C305.351 421.882 275.396 403.731 273.529 396.781C271.49 388.969 271.433 382.838 271.864 380.985C272.653 381.861 274.578 384.69 277.995 393.493C286.137 414.473 317.528 426.679 335.521 432.078L336.225 432.293L336.555 431.676L337.144 430.513L337.632 429.508L336.498 429.163C319.022 423.864 288.464 412.031 280.939 392.645Z" fill="#FF4D40"/>
<path d="M285.118 387.72C279.604 374.997 275.267 369.411 271.074 369.684C266.881 369.957 263.894 376.117 261.826 389.903C258.954 408.398 311.21 437.678 327.293 446.223L328.011 446.61L328.442 445.979C328.686 445.634 328.901 445.275 329.117 444.93L329.634 444.097L328.7 443.595C296.548 426.492 262.903 403.516 264.885 390.592C267.34 374.624 270.327 372.771 271.562 372.714C272.452 372.714 275.87 373.863 282.289 388.668C288.708 403.473 307.476 416.569 338.02 427.023L338.795 427.296L339.097 426.593C339.183 426.406 339.269 426.234 339.341 426.061C339.413 425.889 339.528 425.688 339.614 425.487L340.03 424.539L338.982 424.194C309.702 414.214 291.077 401.592 285.118 387.72Z" fill="#FF4D40"/>
<path d="M289.297 382.766C282.332 368.176 275.913 361.054 269.595 360.996C263.276 360.939 257.934 368.176 253.124 382.866C244.393 409.547 304.116 443.322 322.626 453.029L323.33 453.403L325.11 450.961L324.091 450.43C311.31 443.681 247.983 408.786 256.068 384.044C260.376 370.976 265.114 364.069 269.911 364.069C274.707 364.069 280.35 370.991 286.511 383.9C293.346 398.26 310.923 410.653 340.231 421.94L340.993 422.241L341.337 421.552C341.525 421.169 341.693 420.776 341.84 420.375L342.184 419.484L341.237 419.125C312.703 408.14 295.715 396.235 289.297 382.766Z" fill="#FF4D40"/>
<path d="M293.461 377.84C284.5 360.824 275.698 351.992 267.297 351.82C258.896 351.648 251.3 359.718 244.407 375.959C237.514 392.2 248.529 412.017 276.143 433.399C289.204 443.259 303.051 452.033 317.543 459.635L318.218 459.98L318.648 459.448L319.438 458.5L320.127 457.624L319.065 457.079C304.633 449.54 233.364 410.308 247.265 377.395C253.641 362.303 260.433 354.749 267.469 354.936C274.506 355.123 282.418 363.308 290.747 379.104C300.225 397.097 324.708 409.26 342.314 416.799L343.175 417.172L343.635 415.98C343.721 415.722 343.821 415.478 343.908 415.219L344.209 414.387L343.333 414.013C326.216 406.618 302.436 394.9 293.461 377.84Z" fill="#FF4D40"/>
<path d="M297.625 372.9C285.908 352.667 275.023 342.744 264.339 342.342C254 342.041 244.393 351.045 235.619 369.109C231.311 378.128 231.038 387.907 234.987 398.145C247.724 431.245 301.33 460.425 311.942 465.939L312.574 466.255L313.019 465.795L313.867 464.876L314.656 464L313.522 463.412C303.053 457.998 250.223 429.364 237.859 397.255C234.24 387.864 234.427 378.903 238.433 370.632C246.518 353.902 255.148 345.43 264.109 345.43H264.468C273.903 345.717 283.868 355.137 294.94 374.25C304.647 391.023 326.345 402.97 344.166 411.5L345.056 411.917L345.387 411.055C345.53 410.682 345.66 410.294 345.789 409.906L346.062 409.102L345.243 408.714C327.925 400.386 306.816 388.797 297.625 372.9Z" fill="#FF4D40"/>
<path d="M301.79 367.961C291.508 351.82 277.536 333.152 260.964 332.692H260.462C248.514 332.692 237.227 342.644 226.917 362.288C220.914 373.776 220.254 385.968 224.949 398.634C238.62 435.568 294.782 466.226 305.897 471.999L306.485 472.3L306.931 471.898C307.247 471.611 307.562 471.324 307.864 471.022L308.783 470.146L307.562 469.515C296.591 463.828 241.248 433.887 227.836 397.772C223.528 385.968 224.088 374.566 229.703 363.882C239.625 344.942 250.209 335.435 261.18 335.751C276.143 336.11 289.368 353.931 299.219 369.425C309.271 385.221 328.471 396.796 345.975 406.086L346.923 406.589L347.239 405.641C347.368 405.239 347.483 404.837 347.598 404.449L347.785 403.717L347.081 403.329C330.022 394.254 311.31 382.938 301.79 367.961Z" fill="#FF4D40"/>
<path d="M305.94 362.992L305.696 362.647C295.4 347.871 278.168 323.129 257.245 322.885H256.958C243.187 322.885 230.133 333.841 218.186 355.453C214.386 362.027 212.1 369.367 211.497 376.936C210.893 384.506 211.986 392.115 214.696 399.208C228.74 438.353 282.921 469.213 299.191 477.743L299.736 478.03L300.282 477.599C300.598 477.355 300.914 477.111 301.215 476.853L302.235 475.977L300.957 475.316C289.469 469.357 231.684 437.678 217.583 398.404C215.038 391.712 214.016 384.536 214.592 377.4C215.169 370.263 217.328 363.345 220.914 357.148C232.402 336.326 244.752 325.828 257.489 326.001C276.732 326.231 293.317 350.068 303.211 364.299L303.456 364.643C313.881 379.621 332.52 391.726 347.584 400.543L348.589 401.147L349.422 398.188L348.747 397.801C334.085 389.156 315.92 377.395 305.94 362.992Z" fill="#FF4D40"/>
<path d="M310.176 358.081C309.659 357.406 309.113 356.645 308.553 355.913L307.189 354.118C295.701 338.796 276.617 313.149 253.54 313.091C237.96 313.091 223.154 325.053 209.498 348.646C199.992 365.103 198.312 382.349 204.501 399.912C219.205 441.685 275.037 474.11 291.795 483.056L292.298 483.315L295.17 481.433L293.734 480.687C277.134 471.927 221.934 440.148 207.445 399.136C201.571 382.45 203.137 366.108 212.241 350.312C225.351 327.623 239.352 316.135 253.885 316.135C275.238 316.135 293.734 340.964 304.791 355.769C305.854 357.205 306.859 358.54 307.792 359.761C318.72 374.121 335.622 386.011 349.12 394.771L350.183 395.46L350.485 394.311L350.786 393.076L350.915 392.43L350.327 392.042C337.13 383.556 320.702 371.924 310.176 358.081Z" fill="#FF4D40"/>
<path d="M319.754 355.008C292.312 313.967 267.814 305.193 252.075 305.064C233.407 304.992 217.152 316.552 206.123 337.948C193.199 363.164 191.448 387.921 201.069 411.515C217.712 452.297 263.894 478.633 282.921 488.053L283.337 488.254L283.725 488.082C284.199 487.867 284.658 487.623 285.161 487.378L286.697 486.56L285.017 485.727C270.255 478.547 220.785 451.852 203.941 410.567C194.664 387.864 196.344 363.954 208.909 339.528C219.32 319.295 234.614 308.151 251.989 308.151H252.305C267.24 308.266 290.603 316.767 317.227 356.559C325.383 368.765 339.973 379.808 350.772 386.916L351.892 387.648L352.165 386.298C352.251 385.911 352.323 385.523 352.394 385.15L352.509 384.532L351.949 384.159C341.567 377.28 327.537 366.625 319.754 355.008Z" fill="#FF4D40"/>
<path d="M323.502 348.431C312.215 331.716 301.273 319.883 289.038 311.196C272.581 299.492 255.709 294.825 240.214 297.668C223.384 300.785 208.622 312.761 198.455 331.386C176.068 372.57 187.628 407.049 201.327 428.703C222.451 462.55 261.165 483.444 276.832 490.854L277.22 491.026L277.579 490.882C278.096 490.681 278.584 490.48 279.015 490.25L280.81 489.446L278.914 488.57C263.334 481.39 224.82 460.855 203.826 427.253C190.643 406.316 179.414 372.972 201.184 333.023C210.905 315.13 225.05 303.657 241.018 300.698C255.608 297.999 271.634 302.479 287.344 313.622C299.191 322.037 309.86 333.583 320.917 349.953C327.293 359.402 337.704 369.526 351.863 380.109L353.026 380.971L353.285 379.635C353.385 379.19 353.457 378.745 353.514 378.285L353.601 377.711L353.112 377.352C339.571 367.171 329.576 357.449 323.502 348.431Z" fill="#FF4D40"/>
<path d="M327.25 341.869C314.685 323.416 303.355 311.713 289.397 302.536C271.347 290.747 252.894 286.267 236.007 289.612C217.784 293.188 201.744 305.696 190.83 324.809C172.162 357.449 172.535 394.972 191.706 427.77C212.944 464.087 253.454 485.67 269.81 493.266L270.14 493.41L270.456 493.323C271.002 493.18 271.533 493.008 272.065 492.835L274.405 492.074L272.179 491.069C255.809 483.645 215.457 462.478 194.363 426.449C183.435 407.781 168.802 369.928 193.558 326.546C204.07 308.137 219.406 296.103 236.854 292.671C252.937 289.498 270.571 293.806 287.861 305.107C301.431 313.981 312.459 325.455 324.737 343.477C330.941 352.595 340.418 362.446 352.911 372.786L354.161 373.82L354.376 372.297C354.448 371.824 354.505 371.35 354.548 370.861V370.359L354.132 370.014C342.256 360.048 333.152 350.585 327.25 341.869Z" fill="#FF4D40"/>
<path d="M330.998 335.292C321.018 320.759 309.099 305.681 289.742 293.877C239.97 263.52 201.227 288.033 183.176 318.289C163.388 351.404 163.072 391.985 182.114 426.865C202.304 463.742 240.516 485.483 261.496 495.176L261.768 495.305H262.056C262.745 495.19 263.492 495.075 264.123 494.932L266.866 494.4L264.195 493.194C243.172 483.702 204.888 462.32 184.799 425.702C166.217 391.813 166.619 352.351 185.861 320.156C203.223 291.077 240.429 267.455 288.306 296.62C307.074 308.108 318.72 322.813 328.514 337.029C335.811 347.183 344.232 356.48 353.615 364.744L354.979 365.993L355.137 364.256C355.137 363.753 355.209 363.251 355.238 362.82L354.319 362.662L355.238 362.791V362.332L354.879 362.001C345.957 354.007 337.948 345.049 330.998 335.292Z" fill="#FF4D40"/>
<path d="M334.746 328.715C322.396 310.923 310.09 296.721 290.101 285.247C267.125 271.993 243.56 268.36 222.12 274.736C203.452 280.322 186.867 293.404 175.494 311.698C154.269 345.717 153.164 388.409 172.507 425.889C192.022 463.699 229.947 486.029 250.912 495.98L251.113 496.066H251.3C252.219 496.066 253.124 496.066 254.043 496.066L257.633 495.865L254.244 494.314C233.12 484.578 194.765 462.622 175.264 424.74C156.438 388.251 157.529 346.679 178.136 313.536C197.005 283.251 237.299 258.379 288.708 287.932C308.137 299.104 320.156 312.976 332.204 330.366C338.703 339.589 345.982 348.236 353.96 356.214L355.396 357.751V355.712C355.396 355.152 355.396 354.606 355.396 354.046V353.644L355.108 353.357C347.656 345.716 340.845 337.474 334.746 328.715Z" fill="#FF4D40"/>
<path d="M338.494 322.152C327.451 306.356 314.642 289.799 290.474 276.602C265.789 263.118 240.544 259.701 217.482 266.737C197.594 272.797 179.96 286.439 167.825 305.136C141.159 346.248 147.807 393.995 162.914 424.97C180.146 460.138 212.112 482.252 235.978 494.616L236.208 494.731H236.351C237.572 494.96 238.836 495.147 240.114 495.305L245.326 495.966L240.501 493.568C215.946 481.405 183.061 459.42 165.686 423.821C150.938 393.665 144.447 347.053 170.468 306.974C192.539 272.941 237.802 251.185 289.167 279.259C312.718 292.183 325.211 308.295 335.995 323.775C341.524 331.688 347.508 339.274 353.917 346.492L355.582 348.374L355.511 345.731C355.511 345.186 355.511 344.64 355.511 344.051V343.721L355.281 343.462C349.302 336.67 343.698 329.556 338.494 322.152Z" fill="#FF4D40"/>
<path d="M354.591 332.592V332.319L354.419 332.089C349.766 326.144 345.674 320.4 342.271 315.575C330.093 298.343 316.997 281.614 290.862 267.972C234.628 238.563 184.713 262.156 160.186 298.587C131.767 340.806 138.732 392.559 153.35 424.036C163.647 446.352 180.792 466.011 204.199 482.381L204.458 482.568C207.872 484.611 211.406 486.448 215.041 488.068L215.788 486.459C187.728 469.227 167.653 447.888 156.136 422.959C141.862 392.215 135.041 341.682 162.799 300.454C186.608 265.071 235.059 242.138 289.627 270.657C315.044 283.955 327.867 300.253 339.801 317.184C343.261 322.124 347.928 328.672 353.213 335.32L355.094 337.718L354.836 334.846C354.74 334.081 354.658 333.329 354.591 332.592Z" fill="#FF4D40"/>
<path d="M229.114 142.552C227.139 142.361 225.149 142.4 223.183 142.667C235.067 146.859 247.16 150.434 259.413 153.379C253.511 149.086 236.38 143.169 229.114 142.552Z" fill="#FF4D40"/>
</svg>
