<svg width="143" height="95" viewBox="0 0 143 95" fill="none" xmlns="http://www.w3.org/2000/svg">
<g id="Group 2">
<g id="ALIMENTA&#195;&#135;&#195;&#131;O">
<path d="M1.21341 91.1621H0L4.6122 77.6799H5.85037L10.4626 91.1621H9.24916L5.27462 79.2796H5.18795L1.21341 91.1621ZM2.08632 85.9944H8.37625V87.1003H2.08632V85.9944Z" fill="#FF4D40"/>
<path d="M14.8148 91.1621V77.6799H15.9724V90.0561H22.0147V91.1621H14.8148Z" fill="#FF4D40"/>
<path d="M27.958 77.6799V91.1621H26.8003V77.6799H27.958Z" fill="#FF4D40"/>
<path d="M33.5081 77.6799H34.8453L39.4451 89.4241H39.5566L44.1564 77.6799H45.4936V91.1621H44.404V80.2803H44.305L40.0271 91.1621H38.9746L34.6967 80.2803H34.5977V91.1621H33.5081V77.6799Z" fill="#FF4D40"/>
<path d="M51.0437 91.1621V77.6799H58.3985V78.7859H52.2014V83.8614H58.0085V84.9674H52.2014V90.0561H58.5223V91.1621H51.0437Z" fill="#FF4D40"/>
<path d="M73.4485 77.6799V91.1621H72.3217L64.8308 79.8721H64.7317V91.1621H63.574V77.6799H64.6946L72.2103 88.9831H72.3094V77.6799H73.4485Z" fill="#FF4D40"/>
<path d="M78.2309 78.7859V77.6799H87.4244V78.7859H83.4065V91.1621H82.2488V78.7859H78.2309Z" fill="#FF4D40"/>
<path d="M90.7473 91.1621H89.5339L94.1461 77.6799H95.3843L99.9965 91.1621H98.7831L94.8085 79.2796H94.7219L90.7473 91.1621ZM91.6202 85.9944H97.9102V87.1003H91.6202V85.9944Z" fill="#FF4D40"/>
<path d="M113.683 81.8931H112.519C112.432 81.4323 112.276 81.0066 112.049 80.616C111.826 80.221 111.545 79.8765 111.207 79.5824C110.868 79.2884 110.484 79.0602 110.055 78.8978C109.626 78.7354 109.162 78.6542 108.662 78.6542C107.861 78.6542 107.131 78.8759 106.471 79.3191C105.814 79.7624 105.288 80.4141 104.892 81.2743C104.5 82.1301 104.304 83.179 104.304 84.421C104.304 85.6718 104.5 86.7251 104.892 87.5809C105.288 88.4367 105.814 89.0862 106.471 89.5295C107.131 89.9683 107.861 90.1878 108.662 90.1878C109.162 90.1878 109.626 90.1066 110.055 89.9442C110.484 89.7818 110.868 89.5558 111.207 89.2661C111.545 88.9721 111.826 88.6276 112.049 88.2326C112.276 87.8376 112.432 87.4097 112.519 86.9489H113.683C113.58 87.5677 113.386 88.1448 113.101 88.6803C112.82 89.2113 112.461 89.6765 112.024 90.0759C111.59 90.4752 111.091 90.7868 110.526 91.0107C109.96 91.2345 109.339 91.3464 108.662 91.3464C107.597 91.3464 106.652 91.0633 105.827 90.4972C105.001 89.9266 104.353 89.1235 103.883 88.0878C103.416 87.052 103.183 85.8298 103.183 84.421C103.183 83.0122 103.416 81.79 103.883 80.7542C104.353 79.7185 105.001 78.9176 105.827 78.3514C106.652 77.7809 107.597 77.4956 108.662 77.4956C109.339 77.4956 109.96 77.6075 110.526 77.8313C111.091 78.0508 111.59 78.3624 112.024 78.7661C112.461 79.1655 112.82 79.6307 113.101 80.1618C113.386 80.6928 113.58 81.2699 113.683 81.8931ZM108.167 91.1818H109.108L109.015 91.7085C109.37 91.7655 109.671 91.9169 109.919 92.1627C110.171 92.4129 110.299 92.7771 110.303 93.2555C110.299 93.7865 110.103 94.2078 109.715 94.5194C109.331 94.831 108.763 94.9912 108.012 95L107.975 94.1771C108.384 94.1683 108.705 94.0937 108.941 93.9533C109.176 93.8172 109.294 93.5956 109.294 93.2884C109.294 92.9592 109.184 92.7266 108.966 92.5906C108.751 92.4545 108.41 92.3734 107.944 92.347L108.167 91.1818Z" fill="#FF4D40"/>
<path d="M118.6 91.1621H117.387L121.999 77.6799H123.237L127.849 91.1621H126.636L122.661 79.2796H122.575L118.6 91.1621ZM119.473 85.9944H125.763V87.1003H119.473V85.9944ZM120.532 76.1329L119.64 76.0803C119.661 75.4966 119.842 75.0204 120.185 74.6517C120.527 74.2787 120.946 74.0922 121.442 74.0922C121.693 74.0922 121.914 74.1382 122.104 74.2304C122.294 74.3226 122.471 74.4301 122.636 74.553C122.806 74.6715 122.977 74.779 123.15 74.8755C123.328 74.9677 123.528 75.0138 123.751 75.0138C124.003 75.0138 124.221 74.9172 124.407 74.7241C124.597 74.531 124.704 74.2897 124.729 74L125.602 74.1053C125.573 74.6978 125.385 75.1696 125.039 75.5207C124.696 75.8718 124.283 76.0473 123.8 76.0473C123.524 76.0473 123.291 76.0013 123.101 75.9091C122.915 75.8125 122.746 75.705 122.593 75.5865C122.445 75.468 122.284 75.3627 122.11 75.2705C121.941 75.174 121.735 75.1257 121.491 75.1257C121.227 75.1257 121.004 75.2245 120.823 75.4219C120.645 75.615 120.548 75.852 120.532 76.1329Z" fill="#FF4D40"/>
<path d="M142 84.421C142 85.8254 141.765 87.0476 141.294 88.0878C140.824 89.1235 140.176 89.9266 139.35 90.4972C138.529 91.0633 137.584 91.3464 136.515 91.3464C135.446 91.3464 134.499 91.0633 133.673 90.4972C132.852 89.9266 132.206 89.1235 131.736 88.0878C131.269 87.0476 131.036 85.8254 131.036 84.421C131.036 83.0166 131.269 81.7966 131.736 80.7608C132.206 79.7207 132.854 78.9176 133.679 78.3514C134.505 77.7809 135.45 77.4956 136.515 77.4956C137.584 77.4956 138.529 77.7809 139.35 78.3514C140.176 78.9176 140.824 79.7207 141.294 80.7608C141.765 81.7966 142 83.0166 142 84.421ZM140.873 84.421C140.873 83.2141 140.683 82.1806 140.304 81.3204C139.924 80.4558 139.406 79.7953 138.75 79.3389C138.094 78.8824 137.349 78.6542 136.515 78.6542C135.685 78.6542 134.942 78.8824 134.286 79.3389C133.63 79.7953 133.11 80.4536 132.726 81.3138C132.346 82.174 132.157 83.2097 132.157 84.421C132.157 85.6279 132.346 86.6614 132.726 87.5216C133.106 88.3818 133.624 89.0423 134.28 89.5031C134.936 89.9596 135.681 90.1878 136.515 90.1878C137.349 90.1878 138.094 89.9596 138.75 89.5031C139.41 89.0467 139.93 88.3884 140.31 87.5282C140.69 86.6636 140.877 85.6279 140.873 84.421Z" fill="#FF4D40"/>
</g>
<g id="PROJETO">
<path d="M0 22.6939V0.306084H8.57915C10.3367 0.306084 11.8112 0.626743 13.0028 1.26806C14.2018 1.90938 15.1066 2.79119 15.7173 3.9135C16.3354 5.02852 16.6444 6.29658 16.6444 7.71768C16.6444 9.15336 16.3354 10.4287 15.7173 11.5437C15.0992 12.6587 14.1869 13.5369 12.9804 14.1782C11.774 14.8123 10.2883 15.1293 8.5233 15.1293H2.83738V11.7952H7.96476C8.99247 11.7952 9.834 11.6202 10.4894 11.2704C11.1447 10.9206 11.6288 10.4396 11.9416 9.82747C12.2618 9.2153 12.4219 8.51204 12.4219 7.71768C12.4219 6.92332 12.2618 6.2237 11.9416 5.61882C11.6288 5.01394 11.141 4.54388 10.4782 4.20865C9.82283 3.86613 8.97757 3.69487 7.94242 3.69487H4.14436V22.6939H0Z" fill="#FF4D40"/>
<path d="M20.2442 22.6939V0.306084H28.8234C30.5809 0.306084 32.0555 0.60488 33.247 1.20247C34.446 1.80006 35.3508 2.63815 35.9615 3.71673C36.5796 4.78802 36.8887 6.03786 36.8887 7.46625C36.8887 8.90193 36.5759 10.1481 35.9503 11.2048C35.3322 12.2543 34.4199 13.0669 33.2135 13.6426C32.007 14.211 30.5251 14.4952 28.7675 14.4952H22.6571V11.1283H28.209C29.2367 11.1283 30.0782 10.9899 30.7336 10.7129C31.3889 10.4287 31.873 10.017 32.1858 9.47766C32.506 8.93108 32.6661 8.26061 32.6661 7.46625C32.6661 6.6719 32.506 5.99414 32.1858 5.43299C31.8655 4.86454 31.3778 4.43457 30.7224 4.14306C30.0671 3.84427 29.2218 3.69487 28.1866 3.69487H24.3886V22.6939H20.2442ZM32.0629 12.5494L37.7265 22.6939H33.1018L27.5387 12.5494H32.0629Z" fill="#FF4D40"/>
<path d="M61.146 11.5C61.146 13.9122 60.6843 15.9783 59.7608 17.6982C58.8448 19.4108 57.5937 20.7226 56.0074 21.6336C54.4286 22.5445 52.6376 23 50.6343 23C48.631 23 46.8362 22.5445 45.25 21.6336C43.6712 20.7153 42.4201 19.3999 41.4966 17.6873C40.5806 15.9674 40.1226 13.9049 40.1226 11.5C40.1226 9.08777 40.5806 7.02535 41.4966 5.31274C42.4201 3.59284 43.6712 2.27741 45.25 1.36644C46.8362 0.455481 48.631 0 50.6343 0C52.6376 0 54.4286 0.455481 56.0074 1.36644C57.5937 2.27741 58.8448 3.59284 59.7608 5.31274C60.6843 7.02535 61.146 9.08777 61.146 11.5ZM56.9793 11.5C56.9793 9.80196 56.7075 8.36993 56.1638 7.2039C55.6276 6.03058 54.8829 5.14512 53.9297 4.54753C52.9764 3.94265 51.878 3.64021 50.6343 3.64021C49.3906 3.64021 48.2922 3.94265 47.3389 4.54753C46.3857 5.14512 45.6372 6.03058 45.0936 7.2039C44.5574 8.36993 44.2893 9.80196 44.2893 11.5C44.2893 13.198 44.5574 14.6337 45.0936 15.807C45.6372 16.9731 46.3857 17.8585 47.3389 18.4634C48.2922 19.061 49.3906 19.3598 50.6343 19.3598C51.878 19.3598 52.9764 19.061 53.9297 18.4634C54.8829 17.8585 55.6276 16.9731 56.1638 15.807C56.7075 14.6337 56.9793 13.198 56.9793 11.5Z" fill="#FF4D40"/>
<path d="M74.0901 0.306084H78.201V16.0475C78.1935 17.4905 77.8807 18.733 77.2626 19.7752C76.6445 20.81 75.7806 21.608 74.671 22.1692C73.5688 22.7231 72.2842 23 70.8171 23C69.4766 23 68.2701 22.7668 67.1978 22.3004C66.1328 21.8267 65.2876 21.1271 64.662 20.2015C64.0364 19.276 63.7236 18.1245 63.7236 16.7471H67.8457C67.8531 17.352 67.9872 17.8731 68.2478 18.3104C68.5159 18.7476 68.8845 19.0829 69.3537 19.3161C69.8229 19.5493 70.3628 19.6659 70.9735 19.6659C71.6363 19.6659 72.1985 19.531 72.6603 19.2614C73.122 18.9845 73.472 18.5764 73.7103 18.0371C73.9561 17.4978 74.0827 16.8346 74.0901 16.0475V0.306084Z" fill="#FF4D40"/>
<path d="M82.6972 22.6939V0.306084H97.5767V3.7058H86.8415V9.78374H96.8059V13.1835H86.8415V19.2942H97.666V22.6939H82.6972Z" fill="#FF4D40"/>
<path d="M100.799 3.7058V0.306084H119.052V3.7058H111.981V22.6939H107.871V3.7058H100.799Z" fill="#FF4D40"/>
<path d="M142 11.5C142 13.9122 141.538 15.9783 140.615 17.6982C139.699 19.4108 138.448 20.7226 136.861 21.6336C135.283 22.5445 133.492 23 131.488 23C129.485 23 127.69 22.5445 126.104 21.6336C124.525 20.7153 123.274 19.3999 122.351 17.6873C121.435 15.9674 120.977 13.9049 120.977 11.5C120.977 9.08777 121.435 7.02535 122.351 5.31274C123.274 3.59284 124.525 2.27741 126.104 1.36644C127.69 0.455481 129.485 0 131.488 0C133.492 0 135.283 0.455481 136.861 1.36644C138.448 2.27741 139.699 3.59284 140.615 5.31274C141.538 7.02535 142 9.08777 142 11.5ZM137.833 11.5C137.833 9.80196 137.561 8.36993 137.018 7.2039C136.482 6.03058 135.737 5.14512 134.784 4.54753C133.83 3.94265 132.732 3.64021 131.488 3.64021C130.245 3.64021 129.146 3.94265 128.193 4.54753C127.24 5.14512 126.491 6.03058 125.948 7.2039C125.411 8.36993 125.143 9.80196 125.143 11.5C125.143 13.198 125.411 14.6337 125.948 15.807C126.491 16.9731 127.24 17.8585 128.193 18.4634C129.146 19.061 130.245 19.3598 131.488 19.3598C132.732 19.3598 133.83 19.061 134.784 18.4634C135.737 17.8585 136.482 16.9731 137.018 15.807C137.561 14.6337 137.833 13.198 137.833 11.5Z" fill="#FF4D40"/>
</g>
<g id="FINAL">
<path d="M0 68V30H23.9895V35.7705H6.78362V46.0869H22.3439V51.8574H6.78362V68H0Z" fill="#FF4D40"/>
<path d="M36.9534 30V68H30.1697V30H36.9534Z" fill="#FF4D40"/>
<path d="M75.0724 30V68H69.0384L51.3937 42.1162H51.0829V68H44.2992V30H50.3698L67.9962 55.9023H68.3253V30H75.0724Z" fill="#FF4D40"/>
<path d="M87.2728 68H80.0321L93.2154 30H101.59L114.791 68H107.551L97.5488 37.793H97.2563L87.2728 68ZM87.5105 53.1006H107.258V58.6299H87.5105V53.1006Z" fill="#FF4D40"/>
<path d="M119.724 68V30H126.507V62.2295H143V68H119.724Z" fill="#FF4D40"/>
</g>
</g>
</svg>
