<svg width="83" height="55" viewBox="0 0 83 55" fill="none" xmlns="http://www.w3.org/2000/svg">
<path d="M0.7 52.5902H0L2.66071 44.8125H3.375L6.03571 52.5902H5.33571L3.04286 45.7354H2.99286L0.7 52.5902ZM1.20357 49.609H4.83214V50.247H1.20357V49.609Z" fill="#FF4D40"/>
<path d="M8.54643 52.5902V44.8125H9.21428V51.9522H12.7V52.5902H8.54643Z" fill="#FF4D40"/>
<path d="M16.1286 44.8125V52.5902H15.4607V44.8125H16.1286Z" fill="#FF4D40"/>
<path d="M19.3304 44.8125H20.1018L22.7554 51.5876H22.8196L25.4732 44.8125H26.2446V52.5902H25.6161V46.3126H25.5589L23.0911 52.5902H22.4839L20.0161 46.3126H19.9589V52.5902H19.3304V44.8125Z" fill="#FF4D40"/>
<path d="M29.4464 52.5902V44.8125H33.6893V45.4506H30.1143V48.3786H33.4643V49.0166H30.1143V51.9522H33.7607V52.5902H29.4464Z" fill="#FF4D40"/>
<path d="M42.3714 44.8125V52.5902H41.7214L37.4 46.0772H37.3429V52.5902H36.675V44.8125H37.3214L41.6571 51.3332H41.7143V44.8125H42.3714Z" fill="#FF4D40"/>
<path d="M45.1304 45.4506V44.8125H50.4339V45.4506H48.1161V52.5902H47.4482V45.4506H45.1304Z" fill="#FF4D40"/>
<path d="M52.3509 52.5902H51.6509L54.3116 44.8125H55.0259L57.6866 52.5902H56.9866L54.6937 45.7354H54.6437L52.3509 52.5902ZM52.8545 49.609H56.483V50.247H52.8545V49.609Z" fill="#FF4D40"/>
<path d="M65.5821 47.2431H64.9107C64.8607 46.9772 64.7702 46.7316 64.6393 46.5063C64.5107 46.2784 64.3488 46.0797 64.1536 45.9101C63.9583 45.7404 63.7369 45.6088 63.4893 45.5151C63.2417 45.4214 62.9738 45.3746 62.6857 45.3746C62.2238 45.3746 61.8024 45.5025 61.4214 45.7582C61.0429 46.0139 60.7393 46.3898 60.5107 46.8861C60.2845 47.3798 60.1714 47.9849 60.1714 48.7014C60.1714 49.4229 60.2845 50.0306 60.5107 50.5243C60.7393 51.018 61.0429 51.3927 61.4214 51.6484C61.8024 51.9016 62.2238 52.0281 62.6857 52.0281C62.9738 52.0281 63.2417 51.9813 63.4893 51.8876C63.7369 51.794 63.9583 51.6636 64.1536 51.4965C64.3488 51.3268 64.5107 51.1281 64.6393 50.9002C64.7702 50.6724 64.8607 50.4255 64.9107 50.1597H65.5821C65.5226 50.5167 65.4107 50.8496 65.2464 51.1585C65.0845 51.4648 64.8774 51.7332 64.625 51.9636C64.375 52.194 64.0869 52.3737 63.7607 52.5029C63.4345 52.632 63.0762 52.6965 62.6857 52.6965C62.0714 52.6965 61.5262 52.5332 61.05 52.2066C60.5738 51.8775 60.2 51.4142 59.9286 50.8167C59.6595 50.2192 59.525 49.5141 59.525 48.7014C59.525 47.8887 59.6595 47.1836 59.9286 46.5861C60.2 45.9886 60.5738 45.5265 61.05 45.1999C61.5262 44.8708 62.0714 44.7062 62.6857 44.7062C63.0762 44.7062 63.4345 44.7708 63.7607 44.8999C64.0869 45.0265 64.375 45.2062 64.625 45.4392C64.8774 45.6696 65.0845 45.9379 65.2464 46.2443C65.4107 46.5506 65.5226 46.8835 65.5821 47.2431ZM62.4 52.6016H62.9429L62.8893 52.9054C63.094 52.9383 63.2679 53.0257 63.4107 53.1674C63.556 53.3118 63.6298 53.5219 63.6321 53.7979C63.6298 54.1042 63.5167 54.3473 63.2929 54.527C63.0714 54.7068 62.744 54.7992 62.3107 54.8042L62.2893 54.3295C62.525 54.3245 62.7107 54.2814 62.8464 54.2004C62.9821 54.1219 63.05 53.9941 63.05 53.8168C63.05 53.627 62.9869 53.4928 62.8607 53.4143C62.7369 53.3358 62.5405 53.289 62.2714 53.2738L62.4 52.6016Z" fill="#FF4D40"/>
<path d="M68.4187 52.5902H67.7187L70.3795 44.8125H71.0937L73.7545 52.5902H73.0545L70.7616 45.7354H70.7116L68.4187 52.5902ZM68.9223 49.609H72.5509V50.247H68.9223V49.609ZM69.533 43.9201L69.0187 43.8897C69.0307 43.553 69.1354 43.2783 69.333 43.0656C69.5307 42.8504 69.7723 42.7428 70.058 42.7428C70.2033 42.7428 70.3307 42.7694 70.4402 42.8226C70.5497 42.8757 70.6521 42.9378 70.7473 43.0086C70.8449 43.077 70.9437 43.139 71.0437 43.1947C71.1461 43.2479 71.2616 43.2745 71.3902 43.2745C71.5354 43.2745 71.6616 43.2188 71.7687 43.1074C71.8783 42.996 71.9402 42.8567 71.9545 42.6896L72.458 42.7504C72.4414 43.0922 72.333 43.3644 72.133 43.5669C71.9354 43.7694 71.6973 43.8707 71.4187 43.8707C71.2592 43.8707 71.1247 43.8441 71.0152 43.791C70.908 43.7353 70.8104 43.6732 70.7223 43.6049C70.6366 43.5365 70.5437 43.4758 70.4437 43.4226C70.3461 43.3669 70.2271 43.339 70.0866 43.339C69.9342 43.339 69.8056 43.396 69.7009 43.5099C69.5985 43.6213 69.5426 43.7581 69.533 43.9201Z" fill="#FF4D40"/>
<path d="M81.9179 48.7014C81.9179 49.5115 81.7821 50.2166 81.5107 50.8167C81.2393 51.4142 80.8655 51.8775 80.3893 52.2066C79.9155 52.5332 79.3702 52.6965 78.7536 52.6965C78.1369 52.6965 77.5905 52.5332 77.1143 52.2066C76.6405 51.8775 76.2679 51.4142 75.9964 50.8167C75.7274 50.2166 75.5928 49.5115 75.5928 48.7014C75.5928 47.8912 75.7274 47.1874 75.9964 46.5899C76.2679 45.9898 76.6417 45.5265 77.1179 45.1999C77.594 44.8708 78.1393 44.7062 78.7536 44.7062C79.3702 44.7062 79.9155 44.8708 80.3893 45.1999C80.8655 45.5265 81.2393 45.9898 81.5107 46.5899C81.7821 47.1874 81.9179 47.8912 81.9179 48.7014ZM81.2679 48.7014C81.2679 48.0051 81.1583 47.4089 80.9393 46.9127C80.7202 46.4139 80.4214 46.0329 80.0429 45.7696C79.6643 45.5063 79.2345 45.3746 78.7536 45.3746C78.275 45.3746 77.8464 45.5063 77.4678 45.7696C77.0893 46.0329 76.7893 46.4126 76.5679 46.9089C76.3488 47.4051 76.2393 48.0026 76.2393 48.7014C76.2393 49.3976 76.3488 49.9938 76.5679 50.4901C76.7869 50.9863 77.0857 51.3673 77.4643 51.6332C77.8429 51.8965 78.2726 52.0281 78.7536 52.0281C79.2345 52.0281 79.6643 51.8965 80.0429 51.6332C80.4238 51.3699 80.7238 50.9901 80.9428 50.4939C81.1619 49.9951 81.2702 49.3976 81.2679 48.7014Z" fill="#FF4D40"/>
<path d="M0 13.0918V0.176576H4.94919C5.96309 0.176576 6.81373 0.361559 7.50112 0.731527C8.19281 1.10149 8.71479 1.6102 9.06708 2.25764C9.42366 2.90088 9.60195 3.63241 9.60195 4.45222C9.60195 5.28045 9.42366 6.01618 9.06708 6.65942C8.7105 7.30266 8.18421 7.80926 7.48823 8.17923C6.79225 8.54499 5.93517 8.72787 4.91697 8.72787H1.63684V6.80446H4.59476C5.18763 6.80446 5.6731 6.70356 6.05116 6.50176C6.42923 6.29996 6.70848 6.02248 6.88892 5.66933C7.07365 5.31618 7.16602 4.91048 7.16602 4.45222C7.16602 3.99397 7.07365 3.59037 6.88892 3.24142C6.70848 2.89247 6.42708 2.6213 6.04472 2.42791C5.66666 2.23032 5.17904 2.13152 4.58187 2.13152H2.39082V13.0918H0Z" fill="#FF4D40"/>
<path d="M11.6786 13.0918V0.176576H16.6278C17.6417 0.176576 18.4923 0.348947 19.1797 0.693689C19.8714 1.03843 20.3934 1.52191 20.7457 2.14413C21.1023 2.76214 21.2806 3.48316 21.2806 4.30718C21.2806 5.1354 21.1001 5.85432 20.7392 6.46392C20.3827 7.06932 19.8564 7.53809 19.1604 7.87022C18.4644 8.19815 17.6095 8.36211 16.5956 8.36211H13.0706V6.41978H16.2734C16.8662 6.41978 17.3517 6.3399 17.7298 6.18014C18.1078 6.01618 18.3871 5.77864 18.5675 5.46753C18.7523 5.15222 18.8446 4.76543 18.8446 4.30718C18.8446 3.84892 18.7523 3.45794 18.5675 3.13421C18.3828 2.80629 18.1014 2.55824 17.7233 2.39007C17.3453 2.2177 16.8577 2.13152 16.2605 2.13152H14.0694V13.0918H11.6786ZM18.4966 7.23959L21.7639 13.0918H19.096L15.8867 7.23959H18.4966Z" fill="#FF4D40"/>
<path d="M35.2743 6.63419C35.2743 8.02577 35.0079 9.21766 34.4752 10.2098C33.9468 11.1978 33.225 11.9546 32.3099 12.4801C31.3991 13.0056 30.3659 13.2684 29.2102 13.2684C28.0546 13.2684 27.0192 13.0056 26.1041 12.4801C25.1933 11.9504 24.4716 11.1915 23.9388 10.2035C23.4104 9.21135 23.1462 8.02157 23.1462 6.63419C23.1462 5.24261 23.4104 4.05283 23.9388 3.06485C24.4716 2.07266 25.1933 1.31381 26.1041 0.788283C27.0192 0.262761 28.0546 0 29.2102 0C30.3659 0 31.3991 0.262761 32.3099 0.788283C33.225 1.31381 33.9468 2.07266 34.4752 3.06485C35.0079 4.05283 35.2743 5.24261 35.2743 6.63419ZM32.8706 6.63419C32.8706 5.65462 32.7138 4.8285 32.4001 4.15583C32.0908 3.47896 31.6612 2.96815 31.1113 2.62341C30.5614 2.27446 29.9277 2.09999 29.2102 2.09999C28.4928 2.09999 27.8591 2.27446 27.3092 2.62341C26.7593 2.96815 26.3275 3.47896 26.0139 4.15583C25.7046 4.8285 25.5499 5.65462 25.5499 6.63419C25.5499 7.61376 25.7046 8.44199 26.0139 9.11886C26.3275 9.79153 26.7593 10.3023 27.3092 10.6513C27.8591 10.996 28.4928 11.1684 29.2102 11.1684C29.9277 11.1684 30.5614 10.996 31.1113 10.6513C31.6612 10.3023 32.0908 9.79153 32.4001 9.11886C32.7138 8.44199 32.8706 7.61376 32.8706 6.63419Z" fill="#FF4D40"/>
<path d="M42.7416 0.176576H45.1131V9.2576C45.1088 10.09 44.9283 10.8068 44.5717 11.408C44.2152 12.005 43.7168 12.4654 43.0767 12.7891C42.4408 13.1086 41.6998 13.2684 40.8534 13.2684C40.0801 13.2684 39.3841 13.1339 38.7655 12.8648C38.1511 12.5915 37.6635 12.1879 37.3026 11.654C36.9417 11.12 36.7613 10.4558 36.7613 9.6612H39.1392C39.1435 10.0101 39.2209 10.3107 39.3712 10.563C39.5259 10.8152 39.7385 11.0086 40.0092 11.1432C40.2799 11.2777 40.5913 11.345 40.9436 11.345C41.326 11.345 41.6503 11.2672 41.9167 11.1116C42.1831 10.9519 42.385 10.7164 42.5225 10.4053C42.6642 10.0942 42.7373 9.71165 42.7416 9.2576V0.176576Z" fill="#FF4D40"/>
<path d="M47.7069 13.0918V0.176576H56.2906V2.13782H50.0977V5.64411H55.846V7.60536H50.0977V11.1306H56.3422V13.0918H47.7069Z" fill="#FF4D40"/>
<path d="M58.1498 2.13782V0.176576H68.6797V2.13782H64.6005V13.0918H62.229V2.13782H58.1498Z" fill="#FF4D40"/>
<path d="M81.9179 6.63419C81.9179 8.02577 81.6515 9.21766 81.1188 10.2098C80.5903 11.1978 79.8686 11.9546 78.9535 12.4801C78.0427 13.0056 77.0095 13.2684 75.8538 13.2684C74.6981 13.2684 73.6628 13.0056 72.7477 12.4801C71.8369 11.9504 71.1151 11.1915 70.5824 10.2035C70.054 9.21135 69.7898 8.02157 69.7898 6.63419C69.7898 5.24261 70.054 4.05283 70.5824 3.06485C71.1151 2.07266 71.8369 1.31381 72.7477 0.788283C73.6628 0.262761 74.6981 0 75.8538 0C77.0095 0 78.0427 0.262761 78.9535 0.788283C79.8686 1.31381 80.5903 2.07266 81.1188 3.06485C81.6515 4.05283 81.9179 5.24261 81.9179 6.63419ZM79.5142 6.63419C79.5142 5.65462 79.3573 4.8285 79.0437 4.15583C78.7344 3.47896 78.3048 2.96815 77.7549 2.62341C77.205 2.27446 76.5713 2.09999 75.8538 2.09999C75.1363 2.09999 74.5027 2.27446 73.9528 2.62341C73.4028 2.96815 72.9711 3.47896 72.6575 4.15583C72.3481 4.8285 72.1935 5.65462 72.1935 6.63419C72.1935 7.61376 72.3481 8.44199 72.6575 9.11886C72.9711 9.79153 73.4028 10.3023 73.9528 10.6513C74.5027 10.996 75.1363 11.1684 75.8538 11.1684C76.5713 11.1684 77.205 10.996 77.7549 10.6513C78.3048 10.3023 78.7344 9.79153 79.0437 9.11886C79.3573 8.44199 79.5142 7.61376 79.5142 6.63419Z" fill="#FF4D40"/>
<path d="M0 39.2283V17.3066H13.8392V20.6355H3.91338V26.5869H12.8899V29.9158H3.91338V39.2283H0Z" fill="#FF4D40"/>
<path d="M21.3179 17.3066V39.2283H17.4045V17.3066H21.3179Z" fill="#FF4D40"/>
<path d="M43.3082 17.3066V39.2283H39.8273L29.6483 24.2963H29.469V39.2283H25.5556V17.3066H29.0576L39.2261 32.2493H39.4159V17.3066H43.3082Z" fill="#FF4D40"/>
<path d="M50.3465 39.2283H46.1694L53.7747 17.3066H58.6057L66.2215 39.2283H62.0444L56.2746 21.8022H56.1058L50.3465 39.2283ZM50.4836 30.633H61.8757V33.8228H50.4836V30.633Z" fill="#FF4D40"/>
<path d="M69.0669 39.2283V17.3066H72.9803V35.8993H82.4947V39.2283H69.0669Z" fill="#FF4D40"/>
</svg>
